<svg xmlns="http://www.w3.org/2000/svg" xml:space="preserve" width="120.65mm" height="482.6mm" version="1.1" style="fill-rule:evenodd" viewBox="0 0 12065 48260">
 <!-- by: Jonimar at treedbox.com -->
 <defs>
  <style type="text/css">
   <![CDATA[
    .fil1 {fill:black}
    .fil0 {fill:white}
   ]]>
  </style>
 </defs>
 <g>
  <path class="fil0" d="M10591 6032l-2318 -2317c-238,-238 -238,-627 0,-865l0 0c238,-238 627,-238 864,0l2750 2750c5,3 8,8 11,11 3,4 8,8 11,12 4,3 7,8 10,11 3,5 7,8 10,13 3,3 6,8 10,11l0 0c3,5 6,8 9,13l0 0c4,4 5,8 8,12 4,4 7,8 10,13 2,4 5,8 8,13l0 0c2,4 5,8 7,12l0 0c3,5 6,9 8,13l0 0 6 13c4,5 5,10 8,13l0 2c2,3 4,8 7,13l0 0 5 13 0 0 6 14 5 13 0 0c2,5 3,10 5,15l0 0c2,5 3,10 5,15l0 0c1,3 3,8 5,12l0 0 3 15c2,5 3,10 5,15 0,5 1,9 3,14l0 0 3 15 2 14 3 15 0 0c0,5 0,10 2,15 0,4 0,9 1,14l0 15 0 0c2,5 2,9 2,14l0 0 0 15 0 0 0 14c0,5 0,10 0,15l0 0 0 15 0 0c0,4 0,9 -2,14l0 0c0,5 0,10 0,15 -1,5 -1,10 -1,14l-2 15 0 0 -3 15c0,4 -2,9 -2,14 -1,5 -3,10 -3,15l0 0c-2,5 -3,9 -3,14 -2,5 -3,10 -5,15l-3 13 0 0c-2,5 -4,10 -5,14l0 0 -5 15 0 0c-2,5 -3,10 -5,13l0 2c-1,3 -3,8 -5,12l-6 15 0 0 -5 13 0 0c-3,5 -5,10 -7,13l0 0c-3,5 -4,10 -8,15 -1,3 -3,8 -6,13l0 0c-2,3 -5,8 -8,12l0 0c-2,4 -5,9 -7,13l0 0c-3,4 -6,9 -8,13 -3,4 -6,8 -10,12 -3,5 -4,9 -8,13l0 0c-3,5 -6,8 -9,13l0 0c-4,3 -7,8 -10,11 -3,5 -7,8 -10,11 -3,5 -6,8 -10,13 -3,3 -8,7 -11,12 -3,3 -6,6 -11,11l-2750 2750c-237,237 -626,237 -864,0l0 0c-238,-238 -238,-627 0,-865l2318 -2318 0 0zm-6088 3353l1880 -7023c88,-324 425,-518 748,-431l0 0c326,86 520,423 433,749l-1882 7021c-86,326 -423,520 -748,433l0 0c-324,-86 -519,-423 -431,-749zm-4325 -2920l0 0zm1298 -433l2317 -2317c238,-238 238,-627 0,-865l0 0c-238,-238 -627,-238 -865,0l-2750 2750c-3,3 -6,8 -10,11 -4,4 -8,8 -11,12 -3,3 -6,8 -10,11 -3,5 -6,8 -9,13 -4,3 -7,8 -10,11l0 0c-3,5 -7,8 -10,13l0 0c-3,4 -6,8 -8,12 -3,4 -6,8 -10,13 -1,4 -4,8 -8,13l0 0c-1,4 -5,8 -8,12l0 0c-1,5 -5,9 -6,13l0 0 -8 13c-2,5 -4,10 -7,13l0 2c-1,3 -5,8 -6,13l0 0 -7 13 0 0 -5 14 -5 13 0 0c-3,5 -4,10 -6,15l0 0c-2,5 -3,10 -3,15l0 0c-2,3 -3,8 -5,12l0 0 -5 15c0,5 -2,10 -3,15 -2,5 -2,9 -3,14l0 0 -4 15 -1 14 -4 15 0 0c0,5 -1,10 -1,15 0,4 -2,9 -2,14l-1 15 0 0c0,5 0,9 0,14l0 0 -2 15 0 0 0 14c0,5 0,10 0,15l0 0 2 15 0 0c0,4 0,9 0,14l0 0c1,5 1,10 1,15 0,5 2,10 2,14l1 15 0 0 4 15c0,4 1,9 1,14 2,5 2,10 4,15l0 0c1,5 1,9 3,14 1,5 3,10 3,15l5 13 0 0c2,5 3,10 5,14l0 0 3 15 0 0c2,5 3,10 6,13l0 2c2,3 4,8 5,12l5 15 0 0 7 13 0 0c1,5 5,10 6,13l0 0c3,5 5,10 7,15 3,3 5,8 8,13l0 0c1,3 5,8 6,12l0 0c3,4 7,9 8,13l0 0c4,4 7,9 8,13 4,4 7,8 10,12 2,5 5,9 8,13l0 0c3,5 7,8 10,13l0 0c3,3 6,8 10,11 3,5 6,8 9,11 4,5 7,8 10,13 3,3 7,7 11,12 4,3 7,6 10,11l2750 2750c238,237 627,237 865,0l0 0c238,-238 238,-627 0,-865l-2317 -2318 0 0zm10411 433l0 0z"/>
  <path class="fil1" d="M10591 42227l-2318 -2317c-238,-238 -238,-627 0,-865l0 0c238,-238 627,-238 864,0l2750 2750c5,3 8,8 11,11 3,4 8,8 11,12 4,3 7,8 10,11 3,5 7,8 10,13 3,3 6,8 10,11l0 0c3,5 6,8 9,13l0 0c4,3 5,8 8,12 4,4 7,8 10,13 2,4 5,8 8,13l0 0c2,4 5,8 7,12l0 0c3,5 6,9 8,13l0 0 6 13c4,5 5,10 8,13l0 2c2,3 4,8 7,13l0 0 5 13 0 0 6 14 5 13 0 0c2,5 3,10 5,15l0 0c2,5 3,10 5,15l0 0c1,3 3,8 5,12l0 0 3 15c2,5 3,10 5,15 0,5 1,9 3,14l0 0 3 15 2 14 3 15 0 0c0,5 0,10 2,15 0,4 0,9 1,14l0 15 0 0c2,5 2,9 2,14l0 0 0 15 0 0 0 14c0,5 0,10 0,15l0 0 0 15 0 0c0,4 0,9 -2,14l0 0c0,5 0,10 0,15 -1,5 -1,9 -1,14l-2 15 0 0 -3 15c0,4 -2,9 -2,14 -1,5 -3,10 -3,15l0 0c-2,5 -3,9 -3,14 -2,5 -3,10 -5,15l-3 13 0 0c-2,5 -4,10 -5,14l0 0 -5 15 0 0c-2,5 -3,10 -5,13l0 2c-1,3 -3,8 -5,12l-6 15 0 0 -5 13 0 0c-3,5 -5,10 -7,13l0 0c-3,5 -4,10 -8,15 -1,3 -3,8 -6,13l0 0c-2,3 -5,8 -8,12l0 0c-2,4 -5,9 -7,13l0 0c-3,4 -6,9 -8,13 -3,4 -6,8 -10,12 -3,5 -4,9 -8,13l0 0c-3,5 -6,8 -9,13l0 0c-4,3 -7,8 -10,11 -3,5 -7,8 -10,11 -3,5 -6,8 -10,13 -3,3 -8,7 -11,12 -3,3 -6,6 -11,11l-2750 2750c-237,237 -626,237 -864,0l0 0c-238,-238 -238,-627 0,-865l2318 -2318 0 0zm-6088 3353l1880 -7023c88,-324 425,-518 748,-431l0 0c326,86 520,423 433,749l-1882 7021c-86,326 -423,520 -748,433l0 0c-324,-86 -519,-423 -431,-749zm-4325 -2920l0 0zm1298 -433l2317 -2317c238,-238 238,-627 0,-865l0 0c-238,-238 -627,-238 -865,0l-2750 2750c-3,3 -6,8 -10,11 -4,4 -8,8 -11,12 -3,3 -6,8 -10,11 -3,5 -6,8 -9,13 -4,3 -7,8 -10,11l0 0c-3,5 -7,8 -10,13l0 0c-3,3 -6,8 -8,12 -3,4 -6,8 -10,13 -1,4 -4,8 -8,13l0 0c-1,4 -5,8 -8,12l0 0c-1,5 -5,9 -6,13l0 0 -8 13c-2,5 -4,10 -7,13l0 2c-1,3 -5,8 -6,13l0 0 -7 13 0 0 -5 14 -5 13 0 0c-3,5 -4,10 -6,15l0 0c-2,5 -3,10 -3,15l0 0c-2,3 -3,8 -5,12l0 0 -5 15c0,5 -2,10 -3,15 -2,5 -2,9 -3,14l0 0 -4 15 -1 14 -4 15 0 0c0,5 -1,10 -1,15 0,4 -2,9 -2,14l-1 15 0 0c0,5 0,9 0,14l0 0 -2 15 0 0 0 14c0,5 0,10 0,15l0 0 2 15 0 0c0,4 0,9 0,14l0 0c1,5 1,10 1,15 0,5 2,9 2,14l1 15 0 0 4 15c0,4 1,9 1,14 2,5 2,10 4,15l0 0c1,5 1,9 3,14 1,5 3,10 3,15l5 13 0 0c2,5 3,10 5,14l0 0 3 15 0 0c2,5 3,10 6,13l0 2c2,3 4,8 5,12l5 15 0 0 7 13 0 0c1,5 5,10 6,13l0 0c3,5 5,10 7,15 3,3 5,8 8,13l0 0c1,3 5,8 6,12l0 0c3,4 7,9 8,13l0 0c4,4 7,9 8,13 4,4 7,8 10,12 2,5 5,9 8,13l0 0c3,5 7,8 10,13l0 0c3,3 6,8 10,11 3,5 6,8 9,11 4,5 7,8 10,13 3,3 7,7 11,12 4,3 7,6 10,11l2750 2750c238,237 627,237 865,0l0 0c238,-238 238,-627 0,-865l-2317 -2318 0 0zm10411 433l0 0z"/>
 </g>
</svg>
