<svg xmlns="http://www.w3.org/2000/svg" xml:space="preserve" width="120.65mm" height="482.6mm" version="1.1" style="fill-rule:evenodd" viewBox="0 0 12065 48260">
 <!-- by: Jonimar at treedbox.com -->
 <defs>
  <style type="text/css">
   <![CDATA[
    .fil0 {fill:#fd0}
   ]]>
  </style>
 </defs>
 <g>
  <path class="fil0" d="M6033 149c-3333,0 -6033,2699 -6033,6032 0,2670 1727,4924 4125,5724 301,53 414,-128 414,-287 0,-143 -7,-618 -7,-1123 -1516,279 -1908,-370 -2029,-709 -68,-174 -362,-709 -618,-852 -211,-114 -513,-393 -8,-400 476,-8 815,437 928,618 543,913 1410,656 1757,498 53,-392 211,-656 385,-807 -1343,-151 -2745,-671 -2745,-2978 0,-657 233,-1199 618,-1622 -60,-150 -271,-769 60,-1598 0,0 506,-159 1659,618 483,-136 996,-204 1508,-204 513,0 1026,68 1509,204 1153,-784 1659,-618 1659,-618 331,829 120,1448 60,1598 384,423 618,958 618,1622 0,2315 -1410,2827 -2752,2978 218,189 407,551 407,1116 0,807 -8,1456 -8,1659 0,159 114,347 415,287 2455,-829 4110,-3132 4110,-5724 0,-3333 -2700,-6032 -6032,-6032l0 0z"/>
 </g>
</svg>
