<svg xmlns="http://www.w3.org/2000/svg" xml:space="preserve" width="120.65mm" height="482.6mm" version="1.1" style="fill-rule:evenodd" viewBox="0 0 12065 48260">
 <!-- by: Jonimar at treedbox.com -->
 <defs>
  <style type="text/css">
   <![CDATA[
    .fil1 {fill:black}
    .fil0 {fill:white}
   ]]>
  </style>
 </defs>
 <g>
  <path class="fil0" d="M1858 11713l2859 0 0 -2591 2693 0 0 2591 2811 0 0 -5600 -4159 -3692 -4204 3692 0 5600zm10207 -6041l-5991 -5320 -6074 5331 667 667 5407 -4748 5329 4732 662 -662z"/>
  <path class="fil1" d="M1858 47908l2859 0 0 -2591 2693 0 0 2591 2811 0 0 -5600 -4159 -3692 -4204 3692 0 5600zm10207 -6041l-5991 -5320 -6074 5331 667 667 5407 -4748 5329 4732 662 -662z"/>
 </g>
</svg>
