<svg xmlns="http://www.w3.org/2000/svg" xml:space="preserve" width="120.65mm" height="482.6mm" version="1.1" style="fill-rule:evenodd" viewBox="0 0 12065 48260">
 <!-- by: Jonimar at treedbox.com -->
 <defs>
  <style type="text/css">
   <![CDATA[
    .fil1 {fill:black}
    .fil0 {fill:white}
   ]]>
  </style>
 </defs>
 <g>
  <path class="fil0" d="M7480 10615c0,798 -652,1450 -1450,1450l0 0c-798,0 -1453,-652 -1453,-1450 0,-2459 -2,-4907 -2,-7363 -232,0 -456,-69 -456,-352 0,-193 158,-351 351,-351l3125 0c193,0 352,158 352,351 0,279 -218,352 -457,352 0,2461 -10,4900 -10,7363zm-2661 -5254l2427 0 0 -2351 244 0c93,0 212,7 212,-110 0,-58 -48,-107 -107,-107l-3125 0c-59,0 -110,49 -110,107 0,117 122,110 215,110l244 0 0 2351 0 0zm759 2517c157,0 286,127 286,286 0,158 -129,285 -286,285 -158,0 -285,-127 -285,-285 0,-159 127,-286 285,-286zm948 -1223c85,0 156,71 156,159 0,85 -71,156 -156,156 -88,0 -157,-71 -157,-156 0,-88 69,-159 157,-159zm-948 -5012c0,-158 -127,-286 -285,-286 -158,0 -286,128 -286,286 0,158 128,286 286,286 158,0 285,-128 285,-286zm1670 -1096c0,-302 -245,-547 -547,-547 -302,0 -546,245 -546,547 0,302 244,547 546,547 302,0 547,-245 547,-547zm-940 3625c0,-86 -70,-156 -156,-156 -86,0 -156,70 -156,156 0,86 70,156 156,156 86,0 156,-70 156,-156z"/>
  <path class="fil1" d="M7480 46810c0,798 -652,1450 -1450,1450l0 0c-798,0 -1453,-652 -1453,-1450 0,-2459 -2,-4907 -2,-7363 -232,0 -456,-69 -456,-352 0,-193 158,-351 351,-351l3125 0c193,0 352,158 352,351 0,279 -218,352 -457,352 0,2461 -10,4900 -10,7363zm-2661 -5254l2427 0 0 -2351 244 0c93,0 212,7 212,-110 0,-58 -48,-107 -107,-107l-3125 0c-59,0 -110,49 -110,107 0,117 122,110 215,110l244 0 0 2351 0 0zm759 2517c157,0 286,127 286,286 0,158 -129,285 -286,285 -158,0 -285,-127 -285,-285 0,-159 127,-286 285,-286zm948 -1223c85,0 156,71 156,159 0,85 -71,156 -156,156 -88,0 -157,-71 -157,-156 0,-88 69,-159 157,-159zm-948 -5012c0,-158 -127,-286 -285,-286 -158,0 -286,128 -286,286 0,158 128,286 286,286 158,0 285,-128 285,-286zm1670 -1096c0,-302 -245,-547 -547,-547 -302,0 -546,245 -546,547 0,302 244,547 546,547 302,0 547,-245 547,-547zm-940 3625c0,-86 -70,-156 -156,-156 -86,0 -156,70 -156,156 0,86 70,156 156,156 86,0 156,-70 156,-156z"/>
 </g>
</svg>
