<svg xmlns="http://www.w3.org/2000/svg" xml:space="preserve" width="120.65mm" height="482.6mm" version="1.1" style="fill-rule:evenodd" viewBox="0 0 12065 48260">
 <!-- by: Jonimar at treedbox.com -->
 <defs>
  <style type="text/css">
   <![CDATA[
    .fil0 {fill:white}
    .fil1 {fill:black}
   ]]>
  </style>
 </defs>
 <g>
  <polygon class="fil0" points="10358,4486 7784,3077 8084,2530 9206,3144 9201,3138 9191,3129 9182,3119 9173,3109 9164,3100 9154,3090 9145,3080 9136,3071 9126,3061 9117,3052 9107,3042 9098,3033 9088,3023 9079,3014 9069,3004 9060,2995 9050,2986 9040,2977 9031,2967 9021,2958 9011,2949 9002,2940 8992,2931 8982,2921 8972,2912 8962,2904 8952,2894 8942,2886 8932,2877 8922,2868 8912,2859 8902,2850 8892,2841 8882,2832 8872,2824 8862,2815 8852,2806 8841,2798 8831,2789 8821,2781 8811,2772 8800,2763 8790,2755 8780,2747 8769,2738 8759,2730 8748,2721 8738,2713 8727,2705 8717,2697 8706,2688 8696,2680 8685,2672 8674,2664 8664,2656 8653,2648 8642,2640 8632,2632 8621,2624 8610,2616 8599,2608 8588,2600 8578,2593 8567,2585 8556,2577 8545,2569 8534,2562 8523,2554 8512,2546 8501,2539 8490,2531 8479,2524 8468,2516 8457,2509 8445,2502 8434,2494 8423,2487 8412,2480 8401,2472 8389,2465 8378,2458 8367,2451 8355,2444 8344,2437 8333,2430 8321,2422 8310,2416 8298,2409 8287,2402 8275,2395 8264,2388 8252,2381 8241,2375 8229,2368 8217,2361 8206,2354 8194,2348 8182,2341 8171,2335 8159,2328 8147,2322 8135,2315 8124,2309 8112,2303 8100,2296 8088,2290 8076,2284 8064,2278 8052,2271 8040,2265 8028,2259 8016,2253 8005,2247 7992,2241 7980,2235 7968,2229 7956,2223 7944,2217 7932,2212 7920,2206 7908,2200 7896,2195 7883,2189 7871,2183 7859,2178 7847,2172 7834,2167 7822,2161 7810,2156 7797,2150 7785,2145 7772,2140 7760,2135 7748,2129 7735,2124 7723,2119 7710,2114 7698,2109 7685,2104 7673,2099 7660,2094 7647,2089 7635,2084 7622,2079 7609,2074 7597,2070 7584,2065 7572,2060 7559,2055 7546,2051 7533,2046 7521,2042 7508,2037 7495,2033 7482,2028 7469,2024 7456,2020 7444,2016 7431,2011 7418,2007 7405,2003 7392,1999 7379,1995 7366,1991 7353,1987 7340,1983 7327,1979 7314,1975 7301,1971 7288,1967 7275,1963 7261,1960 7248,1956 7235,1952 7222,1949 7209,1945 7182,1938 7156,1931 7129,1925 7103,1918 7076,1912 7050,1906 7023,1900 6997,1894 6970,1889 6944,1883 6917,1878 6891,1873 6864,1868 6838,1863 6811,1859 6785,1854 6758,1850 6732,1846 6705,1842 6679,1839 6652,1835 6626,1832 6600,1828 6573,1825 6547,1823 6520,1820 6494,1817 6468,1815 6441,1813 6415,1811 6389,1809 6362,1807 6336,1806 6310,1805 6283,1803 6257,1803 6231,1802 6205,1801 6179,1800 6153,1800 6126,1800 6100,1800 6074,1800 6048,1800 6022,1801 5996,1802 5970,1802 5944,1803 5918,1804 5892,1806 5866,1807 5840,1809 5815,1810 5789,1812 5763,1814 5737,1817 5711,1819 5686,1822 5660,1824 5634,1827 5609,1830 5583,1833 5558,1837 5532,1840 5507,1844 5481,1847 5456,1851 5430,1855 5405,1860 5380,1864 5354,1869 5329,1873 5304,1878 5279,1883 5254,1888 5229,1894 5204,1899 5179,1905 5154,1910 5129,1916 5104,1922 5079,1929 5055,1935 5030,1941 5005,1948 4980,1955 4956,1962 4931,1969 4907,1976 4882,1984 4858,1991 4834,1999 4810,2007 4785,2014 4761,2023 4737,2031 4713,2039 4689,2048 4665,2056 4641,2065 4617,2074 4594,2083 4570,2092 4546,2102 4523,2111 4499,2121 4476,2131 4452,2141 4429,2151 4406,2161 4382,2171 4359,2182 4336,2192 4313,2203 4290,2214 4267,2225 4244,2236 4222,2248 4199,2259 4176,2271 4154,2282 4131,2294 4109,2306 4087,2318 4064,2331 4042,2343 4020,2355 3998,2368 3976,2381 3954,2394 3932,2407 3911,2420 3889,2433 3867,2447 3846,2460 3825,2474 3803,2488 3782,2501 3761,2516 3740,2530 3719,2544 3698,2558 3677,2573 3656,2588 3636,2603 3615,2617 3595,2633 3574,2648 3554,2663 3534,2678 3513,2694 3493,2710 3473,2725 3454,2741 3434,2757 3414,2774 3395,2790 3375,2806 3356,2823 3336,2839 3317,2856 3298,2873 3279,2890 3260,2907 3242,2924 3223,2942 3204,2959 3186,2977 3167,2994 3149,3012 3131,3030 3113,3048 3095,3066 3077,3085 3059,3103 3041,3122 3024,3140 3006,3159 2989,3178 2972,3197 2955,3216 2938,3235 2921,3254 2904,3274 2887,3293 2871,3313 2854,3332 2838,3352 2822,3372 2806,3392 2790,3412 2774,3433 2758,3453 2742,3473 2727,3494 2711,3515 2696,3535 2681,3556 2666,3577 2651,3598 2636,3620 2621,3641 2607,3662 2592,3684 2578,3705 2564,3727 2550,3749 2536,3771 2522,3793 2508,3815 2495,3837 2481,3860 2468,3882 2455,3905 2442,3927 2429,3950 2416,3973 2404,3996 2391,4019 2379,4042 2366,4065 2354,4088 2342,4112 2330,4135 2319,4159 2307,4183 2296,4207 2284,4230 2273,4254 2262,4278 2251,4303 2241,4327 2230,4351 2220,4376 2209,4400 2199,4425 2189,4450 2179,4475 2169,4500 2160,4525 2150,4550 2141,4575 2132,4600 2123,4626 2114,4651 2105,4677 2097,4702 2088,4728 2080,4754 2072,4780 2064,4806 2056,4832 2049,4858 2041,4884 2034,4911 2026,4937 2019,4964 2013,4990 2006,5017 2000,5043 1993,5070 1987,5096 1981,5123 1975,5149 1970,5176 1964,5203 1959,5229 1954,5256 1949,5282 1944,5309 1940,5335 1935,5362 1931,5388 1927,5414 1923,5441 1920,5467 1916,5494 1913,5520 1910,5547 1907,5573 1904,5599 1901,5626 1899,5652 1896,5679 1894,5705 1892,5731 1890,5757 1889,5784 1887,5810 1886,5836 1885,5863 1884,5889 1883,5915 1882,5941 1882,5967 1881,5994 1881,6020 1881,6046 1881,6072 1882,6098 1882,6124 1883,6150 1884,6176 1884,6202 1886,6228 1887,6254 1888,6280 1890,6306 1892,6332 1894,6358 1896,6383 1898,6409 1900,6435 1903,6461 1905,6486 1908,6512 1911,6537 1914,6563 1918,6589 1921,6614 1925,6640 1929,6665 1933,6690 1937,6716 1941,6741 1945,6766 1950,6792 1955,6817 1959,6842 1964,6867 1970,6892 1975,6917 1980,6943 1986,6968 1992,6992 1998,7017 2004,7042 2010,7067 2016,7092 2023,7116 2029,7141 2036,7166 2043,7190 2050,7215 2057,7239 2065,7264 2072,7288 2080,7312 2088,7337 2096,7361 2104,7385 2112,7409 2120,7433 2129,7457 2138,7481 2146,7505 2155,7529 2164,7553 2174,7576 2183,7600 2193,7624 2202,7647 2212,7671 2222,7694 2232,7717 2242,7741 2253,7764 2263,7787 2274,7810 2284,7833 2295,7856 2306,7879 2318,7902 2329,7925 2340,7947 2352,7970 2364,7992 2375,8015 2387,8037 2399,8060 2412,8082 2424,8104 2437,8126 2449,8148 2462,8170 2475,8192 2488,8214 2501,8236 2514,8257 2528,8279 2541,8300 2555,8322 2569,8343 2583,8364 2597,8385 2611,8406 2625,8427 2640,8448 2654,8469 2669,8490 2684,8511 2699,8531 2714,8552 2729,8572 2744,8592 2760,8613 2775,8633 2791,8653 2807,8673 2823,8693 2839,8712 2855,8732 2871,8752 2887,8771 2904,8790 2921,8810 2937,8829 2954,8848 2971,8867 2988,8886 3006,8905 3023,8923 3040,8942 3058,8961 3076,8979 3094,8997 3111,9015 3129,9033 3148,9051 3166,9069 3184,9087 3203,9105 3221,9122 3240,9140 3259,9157 3278,9174 3297,9192 3316,9208 3335,9225 3355,9242 3374,9259 3394,9275 3414,9292 3433,9308 3453,9324 3473,9341 3494,9357 3514,9372 3534,9388 3555,9404 3575,9419 3596,9435 3617,9450 3638,9465 3659,9480 3680,9495 3701,9510 3722,9525 3744,9539 3765,9554 3787,9568 3808,9582 3830,9596 3852,9610 3874,9624 3896,9638 3919,9651 3941,9665 3963,9678 3986,9691 4009,9704 4031,9717 4054,9730 4077,9743 4100,9755 4123,9768 4146,9780 4170,9792 4193,9804 4217,9816 4240,9828 4264,9839 4288,9851 4312,9862 4336,9873 4360,9884 4384,9895 4408,9906 4432,9916 4457,9927 4482,9937 4506,9947 4531,9957 4556,9967 4581,9977 4606,9986 4631,9996 4656,10005 4681,10014 4707,10023 4732,10032 4758,10041 4784,10050 4809,10058 4835,10066 4861,10074 4887,10082 4913,10090 4939,10098 4966,10105 4992,10113 5019,10120 5045,10127 5072,10134 5098,10140 5125,10147 5151,10153 5178,10159 5204,10165 5231,10171 5257,10176 5284,10182 5310,10187 5337,10192 5363,10197 5390,10202 5416,10206 5443,10211 5469,10215 5496,10219 5522,10223 5548,10226 5575,10230 5601,10233 5628,10237 5654,10240 5681,10242 5707,10245 5733,10248 5760,10250 5786,10252 5812,10254 5839,10256 5865,10258 5891,10259 5918,10260 5944,10262 5970,10263 5996,10263 6022,10264 6049,10265 6075,10265 6101,10265 6127,10265 6153,10265 6179,10265 6205,10264 6231,10264 6257,10263 6283,10262 6309,10261 6335,10259 6361,10258 6387,10256 6413,10255 6439,10253 6465,10251 6490,10248 6516,10246 6542,10243 6567,10241 6593,10238 6619,10235 6644,10232 6670,10228 6695,10225 6721,10221 6746,10218 6772,10214 6797,10210 6822,10205 6848,10201 6873,10196 6898,10192 6923,10187 6949,10182 6974,10177 6999,10171 7024,10166 7049,10160 7074,10155 7099,10149 7123,10143 7148,10136 7173,10130 7198,10124 7222,10117 7247,10110 7272,10103 7296,10096 7320,10089 7345,10081 7369,10074 7394,10066 7418,10058 7442,10051 7466,10042 7490,10034 7514,10026 7538,10017 7562,10009 7586,10000 7610,9991 7634,9982 7658,9973 7681,9963 7705,9954 7728,9944 7752,9934 7775,9924 7799,9914 7822,9904 7845,9894 7868,9883 7891,9873 7914,9862 7937,9851 7960,9840 7983,9829 8006,9817 8028,9806 8051,9794 8074,9783 8096,9771 8118,9759 8141,9747 8163,9734 8185,9722 8207,9710 8229,9697 8251,9684 8273,9671 8295,9658 8317,9645 8338,9632 8360,9618 8381,9605 8403,9591 8424,9577 8445,9564 8467,9549 8488,9535 8509,9521 8530,9507 8550,9492 8571,9477 8592,9462 8612,9448 8633,9432 8653,9417 8674,9402 8694,9387 8714,9371 8734,9355 8754,9340 8774,9324 8794,9308 8813,9291 8833,9275 8852,9259 8872,9242 8891,9226 8910,9209 8929,9192 8948,9175 8967,9158 8986,9141 9005,9123 9023,9106 9042,9088 9060,9071 9078,9053 9097,9035 9115,9017 9133,8999 9151,8980 9168,8962 9186,8943 9204,8925 9221,8906 9238,8887 9256,8868 9273,8849 9290,8830 9307,8811 9323,8791 9340,8772 9357,8752 9373,8733 9389,8713 9406,8693 9422,8673 9438,8653 9454,8632 9469,8612 9485,8592 9501,8571 9516,8550 9531,8530 9546,8509 9562,8488 9576,8467 9591,8445 9606,8424 9621,8403 9635,8381 9649,8360 9663,8338 9678,8316 9691,8294 9705,8272 9719,8250 9733,8228 9746,8205 9759,8183 9773,8160 9786,8138 9798,8115 9811,8092 9824,8069 9836,8046 9849,8023 9861,8000 9873,7977 9885,7953 9897,7930 9909,7906 9920,7882 9932,7858 9943,7835 9954,7811 9965,7787 9976,7762 9987,7738 9997,7714 10008,7689 10018,7665 10028,7640 10038,7615 10048,7590 10058,7565 10068,7540 10077,7515 10086,7490 10096,7465 10105,7439 10113,7414 10122,7388 10131,7363 10139,7337 10147,7311 10155,7285 10163,7259 10171,7233 10179,7207 10186,7181 10194,7154 10201,7128 11167,7386 11158,7419 11149,7452 11140,7484 11130,7516 11121,7548 11111,7580 11101,7612 11091,7644 11080,7676 11070,7708 11059,7739 11048,7771 11037,7802 11026,7833 11014,7865 11002,7896 10991,7926 10979,7957 10966,7988 10954,8019 10941,8049 10929,8079 10916,8110 10903,8140 10889,8170 10876,8200 10862,8230 10848,8259 10834,8289 10820,8318 10806,8348 10791,8377 10777,8406 10762,8435 10747,8464 10732,8493 10716,8521 10701,8550 10685,8578 10669,8606 10653,8634 10637,8663 10621,8690 10604,8718 10588,8746 10571,8773 10554,8801 10537,8828 10520,8855 10502,8882 10485,8909 10467,8936 10449,8963 10431,8989 10413,9015 10395,9042 10376,9068 10357,9094 10339,9120 10320,9146 10301,9171 10281,9197 10262,9222 10242,9247 10223,9272 10203,9297 10183,9322 10163,9347 10143,9371 10122,9396 10102,9420 10081,9444 10060,9468 10040,9492 10018,9515 9997,9539 9976,9562 9955,9586 9933,9609 9911,9632 9889,9655 9867,9678 9845,9700 9823,9723 9801,9745 9778,9767 9756,9789 9733,9811 9710,9833 9687,9854 9664,9876 9641,9897 9617,9918 9594,9939 9570,9960 9546,9981 9523,10001 9499,10022 9475,10042 9450,10062 9426,10082 9402,10102 9377,10122 9353,10141 9328,10160 9303,10180 9278,10199 9253,10218 9228,10236 9202,10255 9177,10273 9151,10292 9126,10310 9100,10328 9074,10346 9048,10363 9022,10381 8996,10398 8970,10415 8944,10432 8917,10449 8891,10466 8864,10483 8837,10499 8810,10515 8784,10531 8757,10547 8729,10563 8702,10579 8675,10594 8647,10609 8620,10624 8592,10639 8565,10654 8537,10669 8509,10683 8481,10698 8453,10712 8425,10726 8397,10739 8369,10753 8340,10766 8312,10780 8283,10793 8255,10806 8226,10819 8197,10831 8169,10844 8140,10856 8111,10868 8082,10880 8052,10892 8023,10903 7994,10915 7965,10926 7935,10937 7906,10948 7876,10959 7846,10969 7817,10979 7787,10990 7757,11000 7727,11009 7697,11019 7667,11029 7637,11038 7607,11047 7576,11056 7546,11065 7516,11073 7485,11082 7455,11090 7424,11098 7394,11106 7363,11113 7332,11121 7301,11128 7270,11135 7240,11142 7209,11149 7178,11156 7147,11162 7115,11168 7084,11174 7053,11180 7022,11186 6990,11191 6959,11196 6928,11201 6896,11206 6865,11211 6833,11215 6802,11220 6770,11224 6738,11228 6707,11231 6675,11235 6643,11238 6611,11241 6579,11244 6547,11247 6515,11250 6484,11252 6451,11254 6419,11256 6387,11258 6355,11260 6323,11261 6291,11262 6259,11263 6226,11264 6194,11264 6162,11265 6130,11265 6097,11265 6065,11265 6032,11264 6000,11264 5968,11263 5935,11262 5903,11261 5870,11259 5838,11258 5805,11256 5773,11254 5740,11251 5707,11249 5675,11246 5642,11243 5610,11240 5577,11237 5544,11233 5512,11230 5479,11226 5446,11222 5414,11217 5381,11213 5348,11208 5315,11203 5283,11198 5250,11192 5217,11187 5185,11181 5152,11175 5119,11169 5087,11162 5054,11156 5021,11149 4988,11142 4956,11134 4923,11127 4890,11119 4858,11111 4825,11103 4792,11094 4760,11086 4727,11077 4695,11068 4662,11059 4630,11049 4598,11039 4566,11030 4534,11020 4502,11009 4470,10999 4438,10989 4407,10978 4375,10967 4344,10956 4313,10944 4282,10933 4251,10921 4220,10909 4189,10897 4158,10885 4128,10873 4097,10860 4067,10847 4037,10835 4006,10821 3976,10808 3946,10795 3917,10781 3887,10767 3857,10753 3828,10739 3799,10725 3769,10710 3740,10696 3711,10681 3682,10666 3654,10651 3625,10635 3597,10620 3568,10604 3540,10588 3512,10572 3484,10556 3456,10540 3428,10523 3400,10507 3373,10490 3345,10473 3318,10456 3291,10439 3264,10421 3237,10404 3210,10386 3184,10368 3157,10350 3131,10332 3104,10313 3078,10295 3052,10276 3026,10257 3001,10238 2975,10219 2950,10200 2924,10181 2899,10161 2874,10142 2849,10122 2824,10102 2800,10082 2775,10062 2751,10041 2726,10021 2702,10000 2678,9979 2654,9958 2631,9937 2607,9916 2584,9895 2560,9873 2537,9852 2514,9830 2491,9808 2469,9786 2446,9764 2424,9742 2401,9719 2379,9697 2357,9674 2335,9652 2314,9629 2292,9606 2270,9583 2249,9559 2228,9536 2207,9513 2186,9489 2165,9465 2145,9441 2124,9417 2104,9393 2084,9369 2064,9345 2044,9321 2025,9296 2005,9271 1986,9247 1967,9222 1947,9197 1929,9172 1910,9146 1891,9121 1873,9096 1855,9070 1836,9045 1818,9019 1801,8993 1783,8967 1765,8941 1748,8915 1731,8889 1714,8862 1697,8836 1680,8809 1664,8783 1647,8756 1631,8729 1615,8702 1599,8675 1583,8648 1568,8621 1552,8594 1537,8566 1522,8539 1507,8511 1492,8484 1477,8456 1463,8428 1449,8400 1435,8372 1421,8344 1407,8316 1393,8287 1380,8259 1366,8231 1353,8202 1340,8174 1328,8145 1315,8116 1303,8087 1290,8058 1278,8029 1266,8000 1255,7971 1243,7942 1232,7913 1220,7883 1209,7854 1198,7824 1188,7795 1177,7765 1167,7735 1157,7706 1147,7676 1137,7646 1127,7616 1118,7586 1108,7556 1099,7525 1090,7495 1081,7465 1073,7434 1065,7404 1056,7374 1048,7343 1040,7312 1033,7282 1025,7251 1018,7220 1011,7189 1004,7158 997,7128 991,7096 984,7065 978,7034 972,7003 966,6972 961,6941 955,6909 950,6878 945,6847 940,6815 935,6784 931,6752 926,6720 922,6689 918,6657 915,6625 911,6594 908,6562 905,6530 902,6498 899,6466 896,6434 894,6402 892,6370 890,6338 888,6306 887,6274 885,6242 884,6210 883,6177 882,6145 882,6113 881,6081 881,6048 881,6016 881,5984 882,5951 882,5919 883,5886 884,5854 886,5821 887,5789 889,5756 890,5724 893,5691 895,5659 897,5626 900,5594 903,5561 906,5528 909,5496 913,5463 916,5430 920,5398 925,5365 929,5332 933,5300 938,5267 943,5234 948,5202 954,5169 959,5136 965,5103 971,5071 978,5038 984,5005 991,4973 998,4940 1005,4907 1012,4875 1020,4842 1027,4809 1035,4776 1044,4744 1052,4711 1061,4679 1069,4646 1078,4613 1088,4581 1097,4549 1107,4517 1117,4485 1127,4453 1137,4421 1147,4389 1158,4357 1168,4326 1179,4294 1190,4263 1202,4232 1213,4200 1225,4169 1237,4139 1249,4108 1261,4077 1273,4046 1286,4016 1299,3986 1312,3955 1325,3925 1338,3895 1352,3865 1365,3835 1379,3806 1393,3776 1407,3747 1421,3717 1436,3688 1451,3659 1465,3630 1480,3601 1496,3572 1511,3544 1526,3515 1542,3487 1558,3459 1574,3430 1590,3402 1606,3375 1623,3347 1640,3319 1656,3292 1673,3264 1690,3237 1708,3210 1725,3183 1743,3156 1760,3129 1778,3102 1796,3076 1815,3050 1833,3023 1851,2997 1870,2971 1889,2945 1908,2920 1927,2894 1946,2868 1965,2843 1985,2818 2005,2793 2024,2768 2044,2743 2064,2718 2085,2694 2105,2669 2126,2645 2146,2621 2167,2597 2188,2573 2209,2550 2230,2526 2251,2503 2273,2479 2295,2456 2316,2433 2338,2410 2360,2387 2382,2365 2404,2342 2427,2320 2449,2298 2472,2276 2495,2254 2518,2232 2540,2211 2564,2189 2587,2168 2610,2147 2634,2126 2657,2105 2681,2084 2705,2064 2729,2043 2753,2023 2777,2003 2801,1983 2826,1963 2850,1943 2875,1924 2900,1905 2924,1885 2949,1866 2975,1847 3000,1829 3025,1810 3050,1792 3076,1773 3102,1755 3127,1737 3153,1719 3179,1702 3205,1684 3231,1667 3257,1650 3284,1633 3310,1616 3337,1599 3363,1582 3390,1566 3417,1550 3444,1534 3471,1518 3498,1502 3525,1486 3553,1471 3580,1456 3607,1441 3635,1426 3663,1411 3690,1396 3718,1382 3746,1367 3774,1353 3802,1339 3830,1326 3859,1312 3887,1299 3915,1285 3944,1272 3973,1259 4001,1246 4030,1234 4059,1221 4088,1209 4117,1197 4146,1185 4175,1173 4204,1162 4234,1150 4263,1139 4292,1128 4322,1117 4351,1106 4381,1096 4411,1086 4441,1075 4470,1065 4500,1056 4530,1046 4560,1036 4591,1027 4621,1018 4651,1009 4681,1000 4712,992 4742,983 4773,975 4803,967 4834,959 4865,952 4895,944 4926,937 4957,930 4988,923 5019,916 5050,909 5081,903 5112,897 5143,891 5174,885 5206,879 5237,874 5268,869 5300,864 5331,859 5363,854 5394,850 5426,845 5457,841 5489,837 5521,834 5553,830 5584,827 5616,824 5648,821 5680,818 5712,815 5744,813 5776,811 5808,809 5840,807 5872,805 5904,804 5936,803 5969,802 6001,801 6033,801 6065,800 6098,800 6130,800 6163,800 6195,801 6227,801 6260,802 6292,803 6325,804 6357,806 6390,807 6422,809 6455,811 6487,814 6520,816 6553,819 6585,822 6618,825 6651,828 6683,832 6716,835 6748,839 6781,843 6814,848 6847,852 6879,857 6912,862 6945,867 6977,873 7010,878 7043,884 7075,890 7108,896 7141,903 7174,909 7206,916 7239,923 7272,931 7304,938 7337,946 7370,954 7402,962 7435,971 7468,979 7484,984 7500,988 7517,993 7533,997 7549,1002 7565,1006 7581,1011 7597,1016 7614,1021 7630,1026 7646,1030 7662,1035 7678,1040 7694,1045 7710,1051 7726,1056 7742,1061 7758,1066 7774,1071 7790,1077 7806,1082 7821,1088 7837,1093 7853,1099 7869,1104 7884,1110 7900,1116 7916,1121 7932,1127 7947,1133 7963,1139 7979,1145 7994,1151 8010,1157 8025,1163 8041,1169 8057,1175 8072,1181 8087,1188 8103,1194 8118,1200 8134,1207 8149,1213 8165,1220 8180,1226 8195,1233 8210,1240 8226,1246 8241,1253 8256,1260 8271,1267 8286,1274 8301,1280 8317,1287 8332,1295 8347,1302 8362,1309 8377,1316 8392,1323 8407,1330 8422,1338 8437,1345 8451,1352 8466,1360 8481,1367 8496,1375 8511,1383 8525,1390 8540,1398 8555,1406 8569,1413 8584,1421 8599,1429 8613,1437 8628,1445 8642,1453 8657,1461 8671,1469 8686,1477 8700,1485 8715,1493 8729,1502 8743,1510 8758,1518 8772,1527 8786,1535 8800,1544 8815,1552 8829,1561 8843,1569 8857,1578 8871,1587 8885,1595 8899,1604 8913,1613 8927,1622 8941,1631 8955,1640 8969,1649 8983,1658 8997,1667 9010,1676 9024,1685 9038,1695 9051,1704 9065,1713 9079,1722 9092,1732 9106,1741 9120,1751 9133,1760 9147,1770 9160,1780 9173,1789 9187,1799 9200,1809 9214,1818 9227,1828 9240,1838 9253,1848 9267,1858 9280,1868 9293,1878 9306,1888 9319,1898 9332,1908 9345,1918 9358,1929 9371,1939 9384,1949 9397,1960 9410,1970 9422,1980 9435,1991 9448,2001 9461,2012 9473,2023 9486,2033 9499,2044 9511,2055 9524,2065 9536,2076 9549,2087 9561,2098 9574,2109 9586,2120 9599,2131 9611,2142 9623,2153 9635,2164 9648,2175 9660,2186 9672,2197 9684,2209 9696,2220 9708,2232 9720,2243 9732,2254 9744,2266 9756,2277 9768,2289 9780,2300 9791,2312 9803,2324 9815,2335 9827,2347 9838,2359 9850,2371 9861,2383 9873,2394 9884,2406 9896,2418 9907,2430 9919,2442 9930,2454 9941,2466 9953,2479 9964,2491 9975,2503 9986,2515 9997,2528 10009,2540 10019,2552 10031,2565 10042,2577 10053,2590 10063,2602 10074,2615 10085,2627 10096,2640 10107,2653 10117,2665 10128,2678 10139,2691 10149,2704 10160,2716 10170,2729 10181,2742 10191,2755 10202,2768 10212,2781 10222,2794 10233,2807 10243,2820 10253,2833 10263,2847 10273,2860 10283,2873 10293,2886 10301,2897 10434,1262 10745,1287 11056,1312 10819,4238 10780,4717 "/>
  <polygon class="fil1" points="10358,40681 7784,39272 8084,38724 9206,39339 9201,39333 9191,39324 9182,39314 9173,39304 9164,39295 9154,39285 9145,39275 9136,39266 9126,39256 9117,39247 9107,39237 9098,39228 9088,39218 9079,39209 9069,39199 9060,39190 9050,39181 9040,39172 9031,39162 9021,39153 9011,39144 9002,39135 8992,39126 8982,39116 8972,39107 8962,39099 8952,39089 8942,39080 8932,39072 8922,39063 8912,39054 8902,39045 8892,39036 8882,39027 8872,39019 8862,39010 8852,39001 8841,38993 8831,38984 8821,38976 8811,38967 8800,38958 8790,38950 8780,38942 8769,38933 8759,38925 8748,38916 8738,38908 8727,38900 8717,38892 8706,38883 8696,38875 8685,38867 8674,38859 8664,38851 8653,38843 8642,38835 8632,38827 8621,38819 8610,38811 8599,38803 8588,38795 8578,38788 8567,38780 8556,38772 8545,38764 8534,38757 8523,38749 8512,38741 8501,38734 8490,38726 8479,38719 8468,38711 8457,38704 8445,38697 8434,38689 8423,38682 8412,38675 8401,38667 8389,38660 8378,38653 8367,38646 8355,38639 8344,38632 8333,38625 8321,38617 8310,38611 8298,38604 8287,38597 8275,38590 8264,38583 8252,38576 8241,38570 8229,38563 8217,38556 8206,38549 8194,38543 8182,38536 8171,38530 8159,38523 8147,38517 8135,38510 8124,38504 8112,38498 8100,38491 8088,38485 8076,38479 8064,38473 8052,38466 8040,38460 8028,38454 8016,38448 8005,38442 7992,38436 7980,38430 7968,38424 7956,38418 7944,38412 7932,38407 7920,38401 7908,38395 7896,38390 7883,38384 7871,38378 7859,38373 7847,38367 7834,38362 7822,38356 7810,38351 7797,38345 7785,38340 7772,38335 7760,38330 7748,38324 7735,38319 7723,38314 7710,38309 7698,38304 7685,38299 7673,38294 7660,38289 7647,38284 7635,38279 7622,38274 7609,38269 7597,38265 7584,38260 7572,38255 7559,38250 7546,38246 7533,38241 7521,38237 7508,38232 7495,38228 7482,38223 7469,38219 7456,38215 7444,38211 7431,38206 7418,38202 7405,38198 7392,38194 7379,38190 7366,38186 7353,38182 7340,38178 7327,38174 7314,38170 7301,38166 7288,38162 7275,38158 7261,38155 7248,38151 7235,38147 7222,38144 7209,38140 7182,38133 7156,38126 7129,38120 7103,38113 7076,38107 7050,38101 7023,38095 6997,38089 6970,38084 6944,38078 6917,38073 6891,38068 6864,38063 6838,38058 6811,38054 6785,38049 6758,38045 6732,38041 6705,38037 6679,38034 6652,38030 6626,38027 6600,38023 6573,38020 6547,38018 6520,38015 6494,38012 6468,38010 6441,38008 6415,38006 6389,38004 6362,38002 6336,38001 6310,38000 6283,37998 6257,37997 6231,37997 6205,37996 6179,37995 6153,37995 6126,37995 6100,37995 6074,37995 6048,37995 6022,37996 5996,37996 5970,37997 5944,37998 5918,37999 5892,38001 5866,38002 5840,38004 5815,38005 5789,38007 5763,38009 5737,38012 5711,38014 5686,38017 5660,38019 5634,38022 5609,38025 5583,38028 5558,38032 5532,38035 5507,38039 5481,38042 5456,38046 5430,38050 5405,38055 5380,38059 5354,38064 5329,38068 5304,38073 5279,38078 5254,38083 5229,38089 5204,38094 5179,38100 5154,38105 5129,38111 5104,38117 5079,38124 5055,38130 5030,38136 5005,38143 4980,38150 4956,38157 4931,38164 4907,38171 4882,38179 4858,38186 4834,38194 4810,38202 4785,38209 4761,38218 4737,38226 4713,38234 4689,38243 4665,38251 4641,38260 4617,38269 4594,38278 4570,38287 4546,38297 4523,38306 4499,38316 4476,38326 4452,38336 4429,38346 4406,38356 4382,38366 4359,38377 4336,38387 4313,38398 4290,38409 4267,38420 4244,38431 4222,38443 4199,38454 4176,38466 4154,38477 4131,38489 4109,38501 4087,38513 4064,38526 4042,38538 4020,38550 3998,38563 3976,38576 3954,38589 3932,38602 3911,38615 3889,38628 3867,38642 3846,38655 3825,38669 3803,38683 3782,38696 3761,38711 3740,38725 3719,38739 3698,38753 3677,38768 3656,38783 3636,38798 3615,38812 3595,38828 3574,38843 3554,38858 3534,38873 3513,38889 3493,38905 3473,38920 3454,38936 3434,38952 3414,38969 3395,38985 3375,39001 3356,39018 3336,39034 3317,39051 3298,39068 3279,39085 3260,39102 3242,39119 3223,39137 3204,39154 3186,39172 3167,39189 3149,39207 3131,39225 3113,39243 3095,39261 3077,39280 3059,39298 3041,39317 3024,39335 3006,39354 2989,39373 2972,39392 2955,39411 2938,39430 2921,39449 2904,39469 2887,39488 2871,39508 2854,39527 2838,39547 2822,39567 2806,39587 2790,39607 2774,39628 2758,39648 2742,39668 2727,39689 2711,39710 2696,39730 2681,39751 2666,39772 2651,39793 2636,39815 2621,39836 2607,39857 2592,39879 2578,39900 2564,39922 2550,39944 2536,39966 2522,39988 2508,40010 2495,40032 2481,40055 2468,40077 2455,40100 2442,40122 2429,40145 2416,40168 2404,40191 2391,40214 2379,40237 2366,40260 2354,40283 2342,40307 2330,40330 2319,40354 2307,40378 2296,40402 2284,40425 2273,40449 2262,40473 2251,40498 2241,40522 2230,40546 2220,40571 2209,40595 2199,40620 2189,40645 2179,40670 2169,40695 2160,40720 2150,40745 2141,40770 2132,40795 2123,40821 2114,40846 2105,40872 2097,40897 2088,40923 2080,40949 2072,40975 2064,41001 2056,41027 2049,41053 2041,41079 2034,41106 2026,41132 2019,41159 2013,41185 2006,41212 2000,41238 1993,41265 1987,41291 1981,41318 1975,41344 1970,41371 1964,41397 1959,41424 1954,41451 1949,41477 1944,41504 1940,41530 1935,41556 1931,41583 1927,41609 1923,41636 1920,41662 1916,41689 1913,41715 1910,41742 1907,41768 1904,41794 1901,41821 1899,41847 1896,41874 1894,41900 1892,41926 1890,41952 1889,41979 1887,42005 1886,42031 1885,42058 1884,42084 1883,42110 1882,42136 1882,42162 1881,42189 1881,42215 1881,42241 1881,42267 1882,42293 1882,42319 1883,42345 1884,42371 1884,42397 1886,42423 1887,42449 1888,42475 1890,42501 1892,42527 1894,42553 1896,42578 1898,42604 1900,42630 1903,42655 1905,42681 1908,42707 1911,42732 1914,42758 1918,42784 1921,42809 1925,42835 1929,42860 1933,42885 1937,42911 1941,42936 1945,42961 1950,42987 1955,43012 1959,43037 1964,43062 1970,43087 1975,43112 1980,43138 1986,43163 1992,43187 1998,43212 2004,43237 2010,43262 2016,43287 2023,43311 2029,43336 2036,43361 2043,43385 2050,43410 2057,43434 2065,43459 2072,43483 2080,43507 2088,43532 2096,43556 2104,43580 2112,43604 2120,43628 2129,43652 2138,43676 2146,43700 2155,43724 2164,43748 2174,43771 2183,43795 2193,43819 2202,43842 2212,43866 2222,43889 2232,43912 2242,43936 2253,43959 2263,43982 2274,44005 2284,44028 2295,44051 2306,44074 2318,44097 2329,44120 2340,44142 2352,44165 2364,44187 2375,44210 2387,44232 2399,44255 2412,44277 2424,44299 2437,44321 2449,44343 2462,44365 2475,44387 2488,44409 2501,44431 2514,44452 2528,44474 2541,44495 2555,44517 2569,44538 2583,44559 2597,44580 2611,44601 2625,44622 2640,44643 2654,44664 2669,44685 2684,44706 2699,44726 2714,44747 2729,44767 2744,44787 2760,44808 2775,44828 2791,44848 2807,44868 2823,44888 2839,44907 2855,44927 2871,44947 2887,44966 2904,44985 2921,45005 2937,45024 2954,45043 2971,45062 2988,45081 3006,45100 3023,45118 3040,45137 3058,45155 3076,45174 3094,45192 3111,45210 3129,45228 3148,45246 3166,45264 3184,45282 3203,45300 3221,45317 3240,45335 3259,45352 3278,45369 3297,45387 3316,45403 3335,45420 3355,45437 3374,45454 3394,45470 3414,45487 3433,45503 3453,45519 3473,45536 3494,45552 3514,45567 3534,45583 3555,45599 3575,45614 3596,45630 3617,45645 3638,45660 3659,45675 3680,45690 3701,45705 3722,45720 3744,45734 3765,45749 3787,45763 3808,45777 3830,45791 3852,45805 3874,45819 3896,45833 3919,45846 3941,45860 3963,45873 3986,45886 4009,45899 4031,45912 4054,45925 4077,45938 4100,45950 4123,45963 4146,45975 4170,45987 4193,45999 4217,46011 4240,46023 4264,46034 4288,46046 4312,46057 4336,46068 4360,46079 4384,46090 4408,46101 4432,46111 4457,46122 4482,46132 4506,46142 4531,46152 4556,46162 4581,46172 4606,46181 4631,46191 4656,46200 4681,46209 4707,46218 4732,46227 4758,46236 4784,46245 4809,46253 4835,46261 4861,46269 4887,46277 4913,46285 4939,46293 4966,46300 4992,46308 5019,46315 5045,46322 5072,46329 5098,46335 5125,46342 5151,46348 5178,46354 5204,46360 5231,46366 5257,46371 5284,46377 5310,46382 5337,46387 5363,46392 5390,46397 5416,46401 5443,46406 5469,46410 5496,46414 5522,46418 5548,46421 5575,46425 5601,46428 5628,46432 5654,46435 5681,46437 5707,46440 5733,46443 5760,46445 5786,46447 5812,46449 5839,46451 5865,46453 5891,46454 5918,46455 5944,46457 5970,46457 5996,46458 6022,46459 6049,46460 6075,46460 6101,46460 6127,46460 6153,46460 6179,46460 6205,46459 6231,46458 6257,46458 6283,46457 6309,46456 6335,46454 6361,46453 6387,46451 6413,46450 6439,46448 6465,46446 6490,46443 6516,46441 6542,46438 6567,46436 6593,46433 6619,46430 6644,46427 6670,46423 6695,46420 6721,46416 6746,46413 6772,46409 6797,46405 6822,46400 6848,46396 6873,46391 6898,46387 6923,46382 6949,46377 6974,46372 6999,46366 7024,46361 7049,46355 7074,46350 7099,46344 7123,46338 7148,46331 7173,46325 7198,46319 7222,46312 7247,46305 7272,46298 7296,46291 7320,46284 7345,46276 7369,46269 7394,46261 7418,46253 7442,46246 7466,46237 7490,46229 7514,46221 7538,46212 7562,46204 7586,46195 7610,46186 7634,46177 7658,46168 7681,46158 7705,46149 7728,46139 7752,46129 7775,46119 7799,46109 7822,46099 7845,46089 7868,46078 7891,46068 7914,46057 7937,46046 7960,46035 7983,46024 8006,46012 8028,46001 8051,45989 8074,45978 8096,45966 8118,45954 8141,45942 8163,45929 8185,45917 8207,45905 8229,45892 8251,45879 8273,45866 8295,45853 8317,45840 8338,45827 8360,45813 8381,45800 8403,45786 8424,45772 8445,45759 8467,45744 8488,45730 8509,45716 8530,45701 8550,45687 8571,45672 8592,45657 8612,45643 8633,45627 8653,45612 8674,45597 8694,45582 8714,45566 8734,45550 8754,45535 8774,45519 8794,45503 8813,45486 8833,45470 8852,45454 8872,45437 8891,45421 8910,45404 8929,45387 8948,45370 8967,45353 8986,45336 9005,45318 9023,45301 9042,45283 9060,45266 9078,45248 9097,45230 9115,45212 9133,45194 9151,45175 9168,45157 9186,45138 9204,45120 9221,45101 9238,45082 9256,45063 9273,45044 9290,45025 9307,45006 9323,44986 9340,44967 9357,44947 9373,44928 9389,44908 9406,44888 9422,44868 9438,44848 9454,44827 9469,44807 9485,44787 9501,44766 9516,44745 9531,44725 9546,44704 9562,44683 9576,44662 9591,44640 9606,44619 9621,44598 9635,44576 9649,44555 9663,44533 9678,44511 9691,44489 9705,44467 9719,44445 9733,44423 9746,44400 9759,44378 9773,44355 9786,44333 9798,44310 9811,44287 9824,44264 9836,44241 9849,44218 9861,44195 9873,44172 9885,44148 9897,44125 9909,44101 9920,44077 9932,44053 9943,44030 9954,44006 9965,43982 9976,43957 9987,43933 9997,43909 10008,43884 10018,43860 10028,43835 10038,43810 10048,43785 10058,43760 10068,43735 10077,43710 10086,43685 10096,43660 10105,43634 10113,43609 10122,43583 10131,43558 10139,43532 10147,43506 10155,43480 10163,43454 10171,43428 10179,43402 10186,43376 10194,43349 10201,43323 11167,43581 11158,43614 11149,43647 11140,43679 11130,43711 11121,43743 11111,43775 11101,43807 11091,43839 11080,43871 11070,43903 11059,43934 11048,43966 11037,43997 11026,44028 11014,44060 11002,44091 10991,44121 10979,44152 10966,44183 10954,44214 10941,44244 10929,44274 10916,44305 10903,44335 10889,44365 10876,44395 10862,44425 10848,44454 10834,44484 10820,44513 10806,44543 10791,44572 10777,44601 10762,44630 10747,44659 10732,44688 10716,44716 10701,44745 10685,44773 10669,44801 10653,44829 10637,44858 10621,44885 10604,44913 10588,44941 10571,44968 10554,44996 10537,45023 10520,45050 10502,45077 10485,45104 10467,45131 10449,45158 10431,45184 10413,45210 10395,45237 10376,45263 10357,45289 10339,45315 10320,45341 10301,45366 10281,45392 10262,45417 10242,45442 10223,45467 10203,45492 10183,45517 10163,45542 10143,45566 10122,45591 10102,45615 10081,45639 10060,45663 10040,45687 10018,45710 9997,45734 9976,45757 9955,45781 9933,45804 9911,45827 9889,45850 9867,45873 9845,45895 9823,45918 9801,45940 9778,45962 9756,45984 9733,46006 9710,46028 9687,46049 9664,46071 9641,46092 9617,46113 9594,46134 9570,46155 9546,46176 9523,46196 9499,46217 9475,46237 9450,46257 9426,46277 9402,46297 9377,46317 9353,46336 9328,46355 9303,46375 9278,46394 9253,46413 9228,46431 9202,46450 9177,46468 9151,46487 9126,46505 9100,46523 9074,46541 9048,46558 9022,46576 8996,46593 8970,46610 8944,46627 8917,46644 8891,46661 8864,46678 8837,46694 8810,46710 8784,46726 8757,46742 8729,46758 8702,46774 8675,46789 8647,46804 8620,46819 8592,46834 8565,46849 8537,46864 8509,46878 8481,46893 8453,46907 8425,46921 8397,46934 8369,46948 8340,46961 8312,46975 8283,46988 8255,47001 8226,47014 8197,47026 8169,47039 8140,47051 8111,47063 8082,47075 8052,47087 8023,47098 7994,47110 7965,47121 7935,47132 7906,47143 7876,47154 7846,47164 7817,47174 7787,47185 7757,47195 7727,47204 7697,47214 7667,47224 7637,47233 7607,47242 7576,47251 7546,47260 7516,47268 7485,47277 7455,47285 7424,47293 7394,47301 7363,47308 7332,47316 7301,47323 7270,47330 7240,47337 7209,47344 7178,47351 7147,47357 7115,47363 7084,47369 7053,47375 7022,47381 6990,47386 6959,47391 6928,47396 6896,47401 6865,47406 6833,47410 6802,47415 6770,47419 6738,47423 6707,47426 6675,47430 6643,47433 6611,47436 6579,47439 6547,47442 6515,47445 6484,47447 6451,47449 6419,47451 6387,47453 6355,47455 6323,47456 6291,47457 6259,47458 6226,47459 6194,47459 6162,47460 6130,47460 6097,47460 6065,47460 6032,47459 6000,47459 5968,47458 5935,47457 5903,47456 5870,47454 5838,47453 5805,47451 5773,47449 5740,47446 5707,47444 5675,47441 5642,47438 5610,47435 5577,47432 5544,47428 5512,47425 5479,47421 5446,47417 5414,47412 5381,47408 5348,47403 5315,47398 5283,47393 5250,47387 5217,47382 5185,47376 5152,47370 5119,47364 5087,47357 5054,47351 5021,47344 4988,47337 4956,47329 4923,47322 4890,47314 4858,47306 4825,47298 4792,47289 4760,47281 4727,47272 4695,47263 4662,47254 4630,47244 4598,47234 4566,47225 4534,47215 4502,47204 4470,47194 4438,47184 4407,47173 4375,47162 4344,47151 4313,47139 4282,47128 4251,47116 4220,47104 4189,47092 4158,47080 4128,47068 4097,47055 4067,47042 4037,47030 4006,47016 3976,47003 3946,46990 3917,46976 3887,46962 3857,46948 3828,46934 3799,46920 3769,46905 3740,46891 3711,46876 3682,46861 3654,46846 3625,46830 3597,46815 3568,46799 3540,46783 3512,46767 3484,46751 3456,46735 3428,46718 3400,46702 3373,46685 3345,46668 3318,46651 3291,46634 3264,46616 3237,46598 3210,46581 3184,46563 3157,46545 3131,46527 3104,46508 3078,46490 3052,46471 3026,46452 3001,46433 2975,46414 2950,46395 2924,46376 2899,46356 2874,46337 2849,46317 2824,46297 2800,46277 2775,46257 2751,46236 2726,46216 2702,46195 2678,46174 2654,46153 2631,46132 2607,46111 2584,46090 2560,46068 2537,46047 2514,46025 2491,46003 2469,45981 2446,45959 2424,45937 2401,45914 2379,45892 2357,45869 2335,45847 2314,45824 2292,45801 2270,45778 2249,45754 2228,45731 2207,45708 2186,45684 2165,45660 2145,45636 2124,45612 2104,45588 2084,45564 2064,45540 2044,45516 2025,45491 2005,45466 1986,45442 1967,45417 1947,45392 1929,45367 1910,45341 1891,45316 1873,45291 1855,45265 1836,45240 1818,45214 1801,45188 1783,45162 1765,45136 1748,45110 1731,45084 1714,45057 1697,45031 1680,45004 1664,44978 1647,44951 1631,44924 1615,44897 1599,44870 1583,44843 1568,44816 1552,44789 1537,44761 1522,44734 1507,44706 1492,44679 1477,44651 1463,44623 1449,44595 1435,44567 1421,44539 1407,44511 1393,44482 1380,44454 1366,44426 1353,44397 1340,44369 1328,44340 1315,44311 1303,44282 1290,44253 1278,44224 1266,44195 1255,44166 1243,44137 1232,44108 1220,44078 1209,44049 1198,44019 1188,43990 1177,43960 1167,43930 1157,43901 1147,43871 1137,43841 1127,43811 1118,43781 1108,43751 1099,43720 1090,43690 1081,43660 1073,43629 1065,43599 1056,43569 1048,43538 1040,43507 1033,43477 1025,43446 1018,43415 1011,43384 1004,43353 997,43323 991,43291 984,43260 978,43229 972,43198 966,43167 961,43136 955,43104 950,43073 945,43042 940,43010 935,42979 931,42947 926,42915 922,42884 918,42852 915,42820 911,42789 908,42757 905,42725 902,42693 899,42661 896,42629 894,42597 892,42565 890,42533 888,42501 887,42469 885,42437 884,42405 883,42372 882,42340 882,42308 881,42276 881,42243 881,42211 881,42179 882,42146 882,42114 883,42081 884,42049 886,42016 887,41984 889,41951 890,41919 893,41886 895,41854 897,41821 900,41789 903,41756 906,41723 909,41691 913,41658 916,41625 920,41593 925,41560 929,41527 933,41495 938,41462 943,41429 948,41397 954,41364 959,41331 965,41298 971,41266 978,41233 984,41200 991,41168 998,41135 1005,41102 1012,41069 1020,41037 1027,41004 1035,40971 1044,40939 1052,40906 1061,40874 1069,40841 1078,40808 1088,40776 1097,40744 1107,40712 1117,40680 1127,40648 1137,40616 1147,40584 1158,40552 1168,40521 1179,40489 1190,40458 1202,40427 1213,40395 1225,40364 1237,40334 1249,40303 1261,40272 1273,40241 1286,40211 1299,40181 1312,40150 1325,40120 1338,40090 1352,40060 1365,40030 1379,40001 1393,39971 1407,39942 1421,39912 1436,39883 1451,39854 1465,39825 1480,39796 1496,39767 1511,39739 1526,39710 1542,39682 1558,39654 1574,39625 1590,39597 1606,39570 1623,39542 1640,39514 1656,39487 1673,39459 1690,39432 1708,39405 1725,39378 1743,39351 1760,39324 1778,39297 1796,39271 1815,39245 1833,39218 1851,39192 1870,39166 1889,39140 1908,39115 1927,39089 1946,39063 1965,39038 1985,39013 2005,38988 2024,38963 2044,38938 2064,38913 2085,38889 2105,38864 2126,38840 2146,38816 2167,38792 2188,38768 2209,38745 2230,38721 2251,38698 2273,38674 2295,38651 2316,38628 2338,38605 2360,38582 2382,38560 2404,38537 2427,38515 2449,38493 2472,38471 2495,38449 2518,38427 2540,38406 2564,38384 2587,38363 2610,38342 2634,38321 2657,38300 2681,38279 2705,38259 2729,38238 2753,38218 2777,38198 2801,38178 2826,38158 2850,38138 2875,38119 2900,38100 2924,38080 2949,38061 2975,38042 3000,38024 3025,38005 3050,37987 3076,37968 3102,37950 3127,37932 3153,37914 3179,37897 3205,37879 3231,37862 3257,37845 3284,37828 3310,37811 3337,37794 3363,37777 3390,37761 3417,37745 3444,37729 3471,37713 3498,37697 3525,37681 3553,37666 3580,37651 3607,37636 3635,37621 3663,37606 3690,37591 3718,37577 3746,37562 3774,37548 3802,37534 3830,37521 3859,37507 3887,37494 3915,37480 3944,37467 3973,37454 4001,37441 4030,37429 4059,37416 4088,37404 4117,37392 4146,37380 4175,37368 4204,37357 4234,37345 4263,37334 4292,37323 4322,37312 4351,37301 4381,37291 4411,37281 4441,37270 4470,37260 4500,37251 4530,37241 4560,37231 4591,37222 4621,37213 4651,37204 4681,37195 4712,37187 4742,37178 4773,37170 4803,37162 4834,37154 4865,37147 4895,37139 4926,37132 4957,37125 4988,37118 5019,37111 5050,37104 5081,37098 5112,37092 5143,37086 5174,37080 5206,37074 5237,37069 5268,37064 5300,37059 5331,37054 5363,37049 5394,37045 5426,37040 5457,37036 5489,37032 5521,37029 5553,37025 5584,37022 5616,37019 5648,37016 5680,37013 5712,37010 5744,37008 5776,37006 5808,37004 5840,37002 5872,37000 5904,36999 5936,36998 5969,36997 6001,36996 6033,36996 6065,36995 6098,36995 6130,36995 6163,36995 6195,36996 6227,36996 6260,36997 6292,36998 6325,36999 6357,37001 6390,37002 6422,37004 6455,37006 6487,37009 6520,37011 6553,37014 6585,37017 6618,37020 6651,37023 6683,37027 6716,37030 6748,37034 6781,37038 6814,37043 6847,37047 6879,37052 6912,37057 6945,37062 6977,37068 7010,37073 7043,37079 7075,37085 7108,37091 7141,37098 7174,37104 7206,37111 7239,37118 7272,37126 7304,37133 7337,37141 7370,37149 7402,37157 7435,37166 7468,37174 7484,37179 7500,37183 7517,37188 7533,37192 7549,37197 7565,37201 7581,37206 7597,37211 7614,37216 7630,37221 7646,37225 7662,37230 7678,37235 7694,37240 7710,37246 7726,37251 7742,37256 7758,37261 7774,37266 7790,37272 7806,37277 7821,37283 7837,37288 7853,37294 7869,37299 7884,37305 7900,37311 7916,37316 7932,37322 7947,37328 7963,37334 7979,37340 7994,37346 8010,37352 8025,37358 8041,37364 8057,37370 8072,37376 8087,37383 8103,37389 8118,37395 8134,37402 8149,37408 8165,37415 8180,37421 8195,37428 8210,37435 8226,37441 8241,37448 8256,37455 8271,37462 8286,37469 8301,37475 8317,37482 8332,37490 8347,37497 8362,37504 8377,37511 8392,37518 8407,37525 8422,37533 8437,37540 8451,37547 8466,37555 8481,37562 8496,37570 8511,37578 8525,37585 8540,37593 8555,37601 8569,37608 8584,37616 8599,37624 8613,37632 8628,37640 8642,37648 8657,37656 8671,37664 8686,37672 8700,37680 8715,37688 8729,37697 8743,37705 8758,37713 8772,37722 8786,37730 8800,37739 8815,37747 8829,37756 8843,37764 8857,37773 8871,37782 8885,37790 8899,37799 8913,37808 8927,37817 8941,37826 8955,37835 8969,37844 8983,37853 8997,37862 9010,37871 9024,37880 9038,37890 9051,37899 9065,37908 9079,37917 9092,37927 9106,37936 9120,37946 9133,37955 9147,37965 9160,37975 9173,37984 9187,37994 9200,38004 9214,38013 9227,38023 9240,38033 9253,38043 9267,38053 9280,38063 9293,38073 9306,38083 9319,38093 9332,38103 9345,38113 9358,38124 9371,38134 9384,38144 9397,38155 9410,38165 9422,38175 9435,38186 9448,38196 9461,38207 9473,38218 9486,38228 9499,38239 9511,38250 9524,38260 9536,38271 9549,38282 9561,38293 9574,38304 9586,38315 9599,38326 9611,38337 9623,38348 9635,38359 9648,38370 9660,38381 9672,38392 9684,38404 9696,38415 9708,38426 9720,38438 9732,38449 9744,38461 9756,38472 9768,38484 9780,38495 9791,38507 9803,38519 9815,38530 9827,38542 9838,38554 9850,38566 9861,38578 9873,38589 9884,38601 9896,38613 9907,38625 9919,38637 9930,38649 9941,38661 9953,38674 9964,38686 9975,38698 9986,38710 9997,38723 10009,38735 10019,38747 10031,38760 10042,38772 10053,38785 10063,38797 10074,38810 10085,38822 10096,38835 10107,38848 10117,38860 10128,38873 10139,38886 10149,38899 10160,38911 10170,38924 10181,38937 10191,38950 10202,38963 10212,38976 10222,38989 10233,39002 10243,39015 10253,39028 10263,39042 10273,39055 10283,39068 10293,39081 10301,39092 10434,37457 10745,37482 11056,37507 10819,40433 10780,40912 "/>
 </g>
</svg>
